<svg xmlns="http://www.w3.org/2000/svg" version="1.1" xmlns:xlink="http://www.w3.org/1999/xlink" xmlns:svgjs="http://svgjs.dev/svgjs" width="1500" height="935" viewBox="0 0 1500 935"><g transform="matrix(1,0,0,1,-0.9090909090909918,0.3785425101214628)"><svg viewBox="0 0 396 247" data-background-color="#680031" preserveAspectRatio="xMidYMid meet" height="935" width="1500" xmlns="http://www.w3.org/2000/svg" xmlns:xlink="http://www.w3.org/1999/xlink"><g id="tight-bounds" transform="matrix(1,0,0,1,0.2400000000000091,-0.09999999999999432)"><svg viewBox="0 0 395.52 247.2" height="247.2" width="395.52"><g><svg></svg></g><g><svg viewBox="0 0 395.52 247.2" height="247.2" width="395.52"><g transform="matrix(1,0,0,1,116.58111261509484,47.215199999999996)"><svg viewBox="0 0 162.3577747698103 152.7696" height="152.7696" width="162.3577747698103"><g><svg viewBox="0 0 244.43135999999998 229.99626071248366" height="152.7696" width="162.3577747698103"><g transform="matrix(1,0,0,1,0,133.08760196495118)"><svg viewBox="0 0 244.43135999999998 96.90865874753248" height="96.90865874753248" width="244.43135999999998"><g id="textblocktransform"><svg viewBox="0 0 244.43135999999998 96.90865874753248" height="96.90865874753248" width="244.43135999999998" id="textblock"><g><svg viewBox="0 0 244.43135999999998 52.267899885189436" height="52.267899885189436" width="244.43135999999998"><g transform="matrix(1,0,0,1,0,0)"><svg width="244.43135999999998" viewBox="3.9 -36.75 174.19 37.25" height="52.267899885189436" data-palette-color="#fe5e02"><path d="M3.9 0L3.9-36.75 9.55-36.75 9.55-5 20.1-5 20.1 0 3.9 0ZM35.3 0.5Q32.2 0.5 29.57-0.98 26.95-2.45 25.37-5.18 23.8-7.9 23.8-11.55L23.8-11.55Q23.8-15.15 25.17-17.85 26.55-20.55 29.1-22.05 31.65-23.55 35.1-23.55L35.1-23.55Q37.1-23.55 38.85-22.85 40.6-22.15 41.8-21.13 43-20.1 43.4-19.1L43.4-19.1 43.5-22.95 48.65-22.95 48.65 0 43.55 0 43.45-4.05Q42.6-2.25 40.35-0.88 38.1 0.5 35.3 0.5L35.3 0.5ZM36.2-4Q39.05-4 41-5.98 42.95-7.95 42.95-11.15L42.95-11.15 42.95-11.5Q42.95-13.65 42.05-15.35 41.15-17.05 39.6-18 38.05-18.95 36.2-18.95L36.2-18.95Q33-18.95 31.25-16.88 29.5-14.8 29.5-11.5L29.5-11.5Q29.5-8.15 31.22-6.08 32.95-4 36.2-4L36.2-4ZM68.14 0L68.14-22.95 73.54-22.95 73.54-18.8Q74.64-21.15 76.77-22.35 78.89-23.55 81.64-23.55L81.64-23.55Q87.79-23.5 89.19-19.3L89.19-19.3Q90.29-21.25 92.49-22.4 94.69-23.55 97.14-23.55L97.14-23.55Q100.74-23.55 102.59-22.18 104.44-20.8 105.07-18.28 105.69-15.75 105.69-11.5L105.69-11.5 105.69 0 100.24 0 100.24-11.55Q100.24-15.6 99.42-17.35 98.59-19.1 96.24-19.1L96.24-19.1Q93.09-19.1 91.47-16.98 89.84-14.85 89.84-11.4L89.84-11.4 89.84 0 84.44 0 84.44-12.35Q84.44-15 84.24-16.3 84.04-17.6 83.14-18.35 82.24-19.1 80.24-19.1L80.24-19.1Q78.49-19.1 76.97-18.05 75.44-17 74.52-15.23 73.59-13.45 73.59-11.4L73.59-11.4 73.59 0 68.14 0ZM123.44 0.5Q119.34 0.5 116.59-1.13 113.84-2.75 112.54-5.48 111.24-8.2 111.24-11.45L111.24-11.45Q111.24-15.1 112.77-17.85 114.29-20.6 116.99-22.08 119.69-23.55 123.09-23.55L123.09-23.55Q128.39-23.55 130.97-20.63 133.54-17.7 133.54-12.4L133.54-12.4Q133.54-11.05 133.39-9.6L133.39-9.6 116.89-9.6Q117.44-6.55 119.07-5.2 120.69-3.85 123.59-3.85L123.59-3.85Q125.99-3.85 127.54-4.25 129.09-4.65 130.39-5.35L130.39-5.35 132.04-1.5Q130.79-0.7 128.64-0.1 126.49 0.5 123.44 0.5L123.44 0.5ZM116.89-13.35L128.29-13.35Q128.34-16.45 126.94-17.73 125.54-19 122.94-19L122.94-19Q117.69-19 116.89-13.35L116.89-13.35ZM139.04 0L139.04-22.95 144.44-22.95 144.44-18.45Q145.24-20.75 147.04-22.15 148.84-23.55 151.14-23.55L151.14-23.55Q152.74-23.55 153.34-23.25L153.34-23.25 152.59-17.8Q152.14-18.1 150.64-18.1L150.64-18.1Q148.29-18.1 146.36-16.6 144.44-15.1 144.44-11.8L144.44-11.8 144.44 0 139.04 0ZM167.99 0.5Q163.89 0.5 161.14-1.13 158.39-2.75 157.09-5.48 155.78-8.2 155.78-11.45L155.78-11.45Q155.78-15.1 157.31-17.85 158.84-20.6 161.53-22.08 164.24-23.55 167.64-23.55L167.64-23.55Q172.94-23.55 175.51-20.63 178.09-17.7 178.09-12.4L178.09-12.4Q178.09-11.05 177.94-9.6L177.94-9.6 161.44-9.6Q161.99-6.55 163.61-5.2 165.24-3.85 168.14-3.85L168.14-3.85Q170.53-3.85 172.09-4.25 173.64-4.65 174.94-5.35L174.94-5.35 176.59-1.5Q175.34-0.7 173.19-0.1 171.03 0.5 167.99 0.5L167.99 0.5ZM161.44-13.35L172.84-13.35Q172.89-16.45 171.49-17.73 170.09-19 167.49-19L167.49-19Q162.24-19 161.44-13.35L161.44-13.35Z" opacity="1" transform="matrix(1,0,0,1,0,0)" fill="#fe5e02" class="wordmark-text-0" data-fill-palette-color="primary" id="text-0"></path></svg></g></svg></g><g transform="matrix(1,0,0,1,0,64.60709661848541)"><svg viewBox="0 0 244.43135999999998 32.30156212904707" height="32.30156212904707" width="244.43135999999998"><g transform="matrix(1,0,0,1,0,0)"><svg width="244.43135999999998" viewBox="1.95 -35.11 340.49 45" height="32.30156212904707" data-palette-color="#fe5e02"><path d="M1.95-31.35L1.95-35.11 28.25-35.11 28.25-31.35 17.46-31.35 17.46 0 12.87 0 12.87-31.35 1.95-31.35ZM90.25-20.9L90.25-20.9 89.17-24.32Q93.28-25.95 97.77-25.95L97.77-25.95Q101.7-25.95 103.77-24.63L103.77-24.63Q106.14-23.12 106.14-19.48L106.14-19.48 106.14-9.5Q106.14-7.5 106.19-5.4L106.19-5.4Q106.22-4.15 106.43-2.81L106.43-2.81Q106.63-1.54 106.95-0.39L106.95-0.39 102.94 0.49Q102.38-1.15 102.24-3.17L102.24-3.17 101.75-3.22Q98.72 0.59 94.03 0.59L94.03 0.59Q90.61 0.59 88.54-1.31 86.46-3.2 86.46-6.64L86.46-6.64Q86.46-9.2 87.6-10.84 88.73-12.48 90.81-13.6L90.81-13.6Q94.08-15.38 99.97-15.38L99.97-15.38Q100.75-15.38 102.06-15.33L102.06-15.33 102.06-19.04Q102.06-20.8 100.99-21.58 99.92-22.36 97.62-22.36L97.62-22.36Q94.28-22.36 90.25-20.9ZM102.06-7.13L102.06-7.13 102.06-12.26Q101.41-12.3 100.14-12.3L100.14-12.3Q97.99-12.3 96.18-11.94L96.18-11.94Q93.5-11.4 92.02-10.24 90.54-9.08 90.54-6.91L90.54-6.91Q90.54-3 94.79-3L94.79-3Q96.99-3 98.89-4.17L98.89-4.17Q100.45-5.15 102.06-7.13ZM176.18-25.95L176.18-25.95Q178.18-25.95 180.19-25.54 182.21-25.12 183.94-24.39L183.94-24.39Q183.6-23.61 183.23-22.85 182.86-22.09 182.43-21.36L182.43-21.36Q181.82-21.61 181.07-21.85 180.33-22.09 179.51-22.27 178.69-22.44 177.82-22.55 176.96-22.66 176.13-22.66L176.13-22.66Q175.22-22.66 174.38-22.47 173.54-22.29 172.89-21.88 172.24-21.46 171.85-20.79 171.46-20.12 171.46-19.12L171.46-19.12Q171.46-18.09 171.9-17.4 172.34-16.7 173.1-16.24 173.86-15.77 174.87-15.45 175.88-15.14 177.03-14.87L177.03-14.87Q178.81-14.43 180.35-13.88 181.89-13.33 183.01-12.45 184.13-11.57 184.77-10.28 185.4-8.98 185.4-7.08L185.4-7.08Q185.4-5.08 184.61-3.64 183.82-2.2 182.46-1.26 181.11-0.32 179.3 0.13 177.49 0.59 175.44 0.59L175.44 0.59Q174.37 0.59 173.23 0.45 172.1 0.32 170.99 0.06 169.88-0.2 168.8-0.56 167.73-0.93 166.78-1.37L166.78-1.37Q167.12-2.15 167.5-2.89 167.87-3.64 168.29-4.37L168.29-4.37Q169.1-4.03 170-3.72 170.9-3.42 171.85-3.2 172.81-2.98 173.73-2.84 174.66-2.71 175.52-2.71L175.52-2.71Q176.59-2.71 177.6-2.95 178.62-3.2 179.41-3.72 180.2-4.25 180.68-5.08 181.16-5.91 181.16-7.08L181.16-7.08Q181.16-8.18 180.7-8.89 180.25-9.59 179.5-10.07 178.74-10.55 177.73-10.85 176.71-11.16 175.59-11.43L175.59-11.43Q173.88-11.84 172.35-12.38 170.83-12.92 169.69-13.78 168.56-14.65 167.89-15.93 167.22-17.21 167.22-19.12L167.22-19.12Q167.22-20.9 167.95-22.19 168.68-23.49 169.91-24.32 171.15-25.15 172.77-25.55 174.39-25.95 176.18-25.95ZM248.65-25.39L248.65-31.2 252.85-31.2 252.85-25.39 261.39-25.39 261.39-21.85 252.85-21.85 252.85-7.28Q252.85-5.81 252.94-5.04 253.02-4.27 253.36-3.83L253.36-3.83Q254-2.95 255.93-2.95L255.93-2.95Q257-2.95 258-3.17L258-3.17Q259.03-3.39 259.88-3.66L259.88-3.66Q260.56-2.17 261.13-0.39L261.13-0.39Q258.25 0.59 255.32 0.59L255.32 0.59Q253.19 0.59 251.91 0.11 250.63-0.37 249.9-1.44L249.9-1.44Q249.14-2.56 248.89-4.13 248.65-5.69 248.65-8.45L248.65-8.45 248.65-21.85 244.99-21.85 244.99-25.39 248.65-25.39ZM338.24-25.39L342.44-25.39 342.44 0.56Q342.44 2.98 341.65 4.74 340.85 6.49 339.45 7.64 338.04 8.79 336.12 9.34 334.19 9.89 331.92 9.89L331.92 9.89Q329.87 9.89 327.79 9.53 325.72 9.18 323.84 8.54L323.84 8.54Q324.15 7.69 324.49 6.88 324.84 6.08 325.18 5.27L325.18 5.27Q325.76 5.47 326.58 5.69 327.4 5.91 328.32 6.09 329.23 6.27 330.2 6.38 331.16 6.49 332.06 6.49L332.06 6.49Q333.48 6.49 334.63 6.12 335.77 5.74 336.58 4.98 337.39 4.22 337.81 3.11 338.24 2 338.24 0.56L338.24 0.56 338.24-4.96 337.78-4.96Q337.14-3.81 336.31-2.8 335.48-1.78 334.48-1.03 333.48-0.27 332.32 0.16 331.16 0.59 329.87 0.59L329.87 0.59Q328.08 0.59 326.76 0.18 325.45-0.22 324.51-1.01 323.57-1.81 322.97-2.99 322.37-4.17 322.05-5.74L322.05-5.74Q321.78-7.13 321.71-8.72 321.64-10.3 321.64-11.99L321.64-11.99 321.64-25.39 325.84-25.39 325.84-10.82Q325.84-9.23 325.98-7.85 326.13-6.47 326.63-5.46 327.13-4.44 328.11-3.87 329.08-3.3 330.77-3.3L330.77-3.3Q332.01-3.3 333.11-3.89 334.21-4.49 335.14-5.42 336.07-6.35 336.84-7.47 337.6-8.59 338.24-9.67L338.24-9.67 338.24-25.39Z" opacity="1" transform="matrix(1,0,0,1,0,0)" fill="#fe5e02" class="slogan-text-1" data-fill-palette-color="secondary" id="text-1"></path></svg></g></svg></g></svg></g></svg></g><g transform="matrix(1,0,0,1,46.68638976,0)"><svg viewBox="0 0 151.05858048 120.74840523165518" height="120.74840523165518" width="151.05858048"><g><svg xmlns="http://www.w3.org/2000/svg" xmlns:xlink="http://www.w3.org/1999/xlink" xmlns:a="http://ns.adobe.com/AdobeSVGViewerExtensions/3.0/" version="1.1" x="0" y="0" viewBox="0 -0.000004254926823626937 79.24081622916955 63.341004254926816" enable-background="new -12.98 -15.909 99 100" xml:space="preserve" height="120.74840523165518" width="151.05858048" class="icon-icon-0" data-fill-palette-color="accent" id="icon-0"><path d="M0 35.995C0 44.977 17.964 57.952 17.964 59.748V63.341H53.891V59.548C53.891 57.952 71.855 44.978 71.855 35.995 68.262 35.833 5.788 35.833 0 35.995" fill="#fe5e02" data-fill-palette-color="accent"></path><path d="M71.855 31.443V27.812H0V31.443z" fill="#fe5e02" data-fill-palette-color="accent"></path><path d="M63.565 13.776C60.399 15.161 57.323 16.575 56.216 17.352 56.037 17.827 55.856 18.25 55.68 18.664 55.489 19.109 55.292 19.57 55.09 20.115L53.686 23.891 51.124 20.782C50.992 20.621 50.738 20.352 50.526 20.352A1 1 0 0 0 50.4 20.366L48.663 20.714 47.87 19.129A1 1 0 0 0 47.813 19.03L45.892 19.99 44.846 17.92C44.76 17.77 44.367 17.405 44.002 17.405 43.679 17.405 43.309 17.727 43.117 17.918L41.936 19.1 40.44 18.352A2.5 2.5 0 0 0 39.384 18.109C38.495 18.109 37.634 18.647 36.822 19.71L32.84 17.401C34.444 13.594 38.402 9.68 41.095 8.413 42.982 7.524 44.707 7.093 46.368 7.093 48.648 7.093 50.411 7.888 52.076 8.739 52.625 8.535 53.394 8.2 54.297 7.784 52.571 6.106 50.504 5.154 48.436 6.188 46.639 2.595 38.256-0.399 31.071 6.787 27.478 4.991 17.898 4.991 16.101 13.973 14.305 12.177 10.712 12.177 8.915 15.769 3.526 13.973 1.729 25.349 1.729 25.349H69.992C69.993 25.348 68.083 17.392 63.565 13.776" fill="#fe5e02" data-fill-palette-color="accent"></path><path fill-rule="evenodd" clip-rule="evenodd" d="M75.622 0.135C72.22 0.977 54.956 10.65 51.835 11.224 48.997 9.761 46.62 8.377 42.084 10.512 39.981 11.502 38.991 12.554 37.066 15.707 39.854 13.873 40.268 15.672 41.477 16.277 43.897 13.858 46.316 15.672 46.92 16.881 48.13 16.277 49.34 16.881 49.944 18.09 51.261 17.827 52.235 18.482 52.914 19.306 53.408 17.978 53.84 17.181 54.236 15.992 56.408 13.645 74.955 6.905 77.781 4.745 80.61 2.587 79.023-0.708 75.622 0.135" fill="#fe5e02" data-fill-palette-color="accent"></path></svg></g></svg></g><g></g></svg></g></svg></g><g><path d="M174.013 39.019A81.179 81.179 0 0 1 221.507 39.019L218.376 39.019A78.048 78.048 0 0 0 177.144 39.019L174.013 39.019M174.013 208.181A81.179 81.179 0 0 0 221.507 208.181L218.376 208.181A78.048 78.048 0 0 1 177.144 208.181L174.013 208.181" fill="#fe5e02" stroke="transparent" data-fill-palette-color="tertiary"></path></g></svg></g><defs></defs></svg><rect width="395.52" height="247.2" fill="none" stroke="none" visibility="hidden"></rect></g></svg></g></svg>